<svg width="228" height="228" viewBox="0 0 228 228" fill="none" xmlns="http://www.w3.org/2000/svg">
<path d="M20.5178 56.8673C16.6664 56.8673 12.1073 56.7753 10.4652 53.2915C9.31483 50.8509 9.35122 47.7425 11.2274 45.8165L54.9873 2.00392C57.0814 0.209508 60.0185 0.103445 62.7763 0.101239L189.369 0C209.956 1.22232 226.65 17.8123 228 38.3781L227.949 165.639C227.948 168.152 228.006 170.965 226.248 172.76L181.94 217.027C178.806 220.19 171.135 217.163 171.135 213.015V57.5134C171.135 57.3412 171.066 57.1761 170.944 57.0548C170.823 56.9347 170.659 56.8673 170.489 56.8673H20.5178Z" fill="#0D0D0D"/>
<path d="M0.00609402 172.893C0.0022247 172.889 0 172.884 0 172.879V127.969C0 122.533 0.0841459 115.459 5.3686 114.184C5.70599 114.102 6.05528 114.043 6.41557 114.007H58.0155C63.5659 114.271 66.4363 120.673 63.0488 125.085L13.1066 175.019C11.674 176.452 10.1597 177.968 8.17319 178.366C4.56137 179.089 0.92564 176.865 0.0117567 172.902C0.0109164 172.898 0.00892545 172.895 0.00609402 172.893Z" fill="#0D0D0D"/>
<path d="M105.616 164.636C109.911 163.909 113.478 166.417 113.984 170.743V221.585C113.667 225.097 111.103 227.697 107.579 228.001H56.7279C51.4306 227.651 48.5607 221.226 51.8319 217.046L102.904 165.954C103.569 165.449 104.804 164.772 105.616 164.636Z" fill="#0D0D0D"/>
</svg>
