<svg width="132" height="132" viewBox="0 0 132 132" fill="none" xmlns="http://www.w3.org/2000/svg">
<path d="M8.52839 32.9232C5.95031 32.4944 4.60628 28.4694 6.50012 26.5253L31.8348 1.16016C32.4396 0.641915 33.1543 0.231528 33.9425 0.060533L109.635 0C121.554 0.707657 131.218 10.3124 132 22.2189L131.97 98.0881C131.774 98.8037 131.511 99.4823 130.986 100.019L105.334 125.647C103.519 127.478 99.078 125.726 99.078 123.324V33.1415L98.858 32.9232H8.52839Z" fill="white"/>
<path d="M0 100.093V69.3503C0.433539 67.5193 1.80834 66.1934 3.71428 66.004H33.5879C36.8013 66.1566 38.4631 69.8633 36.502 72.4177L6.34129 102.573C3.84871 104.289 0.67188 102.994 0.00605129 100.098L0 100.093Z" fill="white"/>
<path d="M61.1462 95.3153C63.6327 94.8944 65.6975 96.3465 65.9906 98.851V128.286C65.8075 130.319 64.323 131.824 62.2824 132H32.8425C29.7756 131.798 28.1141 128.078 30.0079 125.658L59.5762 96.0782C59.961 95.7862 60.6758 95.3942 61.1462 95.3153Z" fill="white"/>
</svg>
